<svg width="25" height="28" viewBox="0 0 25 28" fill="none" xmlns="http://www.w3.org/2000/svg">
  <g clip-path="url(#clip0_312_120)">
    <path
      d="M22.3216 5.98554L14.4421 1.4494C13.1589 0.708436 11.5866 0.708436 10.3216 1.4494L8.26135 2.64217V7.93735V9.14819V14.1181C8.26135 15.5819 9.03846 16.9554 10.3216 17.6964C10.9541 18.0578 11.677 18.2566 12.3818 18.2566C13.0866 18.2566 13.8095 18.0759 14.4421 17.6964C15.7252 16.9554 16.5023 15.6 16.5023 14.1181C16.5023 12.6542 15.7252 11.2807 14.4421 10.5398C13.8095 10.1783 13.0866 9.97952 12.3818 9.97952V7.39518C13.0866 7.39518 13.8095 7.5759 14.4421 7.95542L16.683 9.25663C17.9662 9.99759 18.7433 11.353 18.7433 12.8349V15.4193C18.7433 16.8831 17.9662 18.2566 16.683 18.9976L14.4421 20.2988C13.8095 20.6602 13.0866 20.859 12.3818 20.859C11.677 20.859 10.9541 20.6783 10.3216 20.2988L8.08063 18.9976C6.79749 18.2566 6.02038 16.9012 6.02038 15.4193V14.1181V12.8169V9.47349V3.9253L2.46014 5.98554C1.17701 6.72651 0.399902 8.08193 0.399902 9.56385V18.6542C0.399902 20.1181 1.17701 21.4916 2.46014 22.2325L10.3397 26.7687C11.6228 27.5096 13.1951 27.5096 14.4601 26.7687L22.3397 22.2325C23.6228 21.4916 24.3999 20.1361 24.3999 18.6542V9.56385C24.3818 8.08193 23.5866 6.72651 22.3216 5.98554ZM9.85171 10.8651C9.61677 11.0458 9.41797 11.2446 9.23725 11.4614V8.56988L9.85171 8.20843V10.8651ZM11.424 10.106C11.2071 10.1602 11.0083 10.2145 10.8095 10.3048V7.70241C11.0083 7.61205 11.2252 7.55783 11.424 7.50361V10.106Z"
      fill="#FAD83B" />
  </g>
  <defs>
    <clipPath id="clip0_312_120">
      <rect width="24" height="26.4217" fill="white" transform="translate(0.399902 0.88916)" />
    </clipPath>
  </defs>
</svg>
  