<svg xmlns="http://www.w3.org/2000/svg" width="32" height="32" viewBox="0 0 128 128">
  <path fill="#1572B6"
    d="M18.814 114.123L8.76 1.352h110.48l-10.064 112.754l-45.243 12.543l-45.119-12.526z" />
  <path fill="#33A9DC" d="m64.001 117.062l36.559-10.136l8.601-96.354h-45.16v106.49z" />
  <path fill="#fff"
    d="M64.001 51.429h18.302l1.264-14.163H64.001V23.435h34.682l-.332 3.711l-3.4 38.114h-30.95V51.429z" />
  <path fill="#EBEBEB"
    d="m64.083 87.349l-.061.018l-15.403-4.159l-.985-11.031H33.752l1.937 21.717l28.331 7.863l.063-.018v-14.39z" />
  <path fill="#fff"
    d="m81.127 64.675l-1.666 18.522l-15.426 4.164v14.39l28.354-7.858l.208-2.337l2.406-26.881H81.127z" />
  <path fill="#EBEBEB"
    d="M64.048 23.435v13.831H30.64l-.277-3.108l-.63-7.012l-.331-3.711h34.646zm-.047 27.996v13.831H48.792l-.277-3.108l-.631-7.012l-.33-3.711h16.447z" />
</svg>