<svg xmlns="http://www.w3.org/2000/svg" width="32" height="32" viewBox="0 0 128 128">
  <path fill="#F44250"
    d="M99.04 50.315c-3.646-1.148-5.528-.761-9.351-1.18c-5.91-.645-8.265-2.959-9.264-8.913c-.559-3.324.101-8.191-1.326-11.204c-2.729-5.746-9.115-8.323-15.53-6.852c-5.417 1.244-9.924 6.666-10.174 12.232c-.285 6.355 3.33 11.778 9.537 13.65c2.95.89 6.083 1.338 9.163 1.565c5.649.413 6.083 3.558 7.61 6.147c.964 1.632 1.897 3.24 1.897 8.107s-.939 6.474-1.896 8.106c-1.528 2.583-3.413 4.275-9.062 4.693c-3.08.228-6.22.676-9.162 1.567c-6.208 1.877-9.823 7.293-9.538 13.649c.25 5.566 4.757 10.988 10.174 12.232c6.415 1.476 12.801-1.106 15.53-6.852c1.433-3.013 2.218-6.427 2.777-9.75c1.005-5.955 3.36-8.269 9.264-8.915c3.823-.418 7.78 0 11.363-2.038c3.785-2.77 7.168-6.93 7.168-12.692c0-5.764-3.645-11.806-9.18-13.552z" />
  <path fill="#121212"
    d="M38.4 77.373c-7.45 0-13.528-6.098-13.528-13.575c0-7.476 6.077-13.574 13.527-13.574c7.45 0 13.528 6.098 13.528 13.574c0 7.47-6.083 13.575-13.528 13.575zM13.48 104.96C6.04 104.942-.018 98.82 0 91.337c.018-7.47 6.119-13.55 13.575-13.526c7.444.018 13.503 6.14 13.48 13.622c-.018 7.464-6.12 13.545-13.575 13.527zm100.512 0c-7.462.041-13.586-6.015-13.629-13.473c-.041-7.488 5.994-13.634 13.426-13.676c7.462-.042 13.587 6.014 13.629 13.472c.041 7.482-5.994 13.635-13.426 13.677z" />
</svg>