<svg aria-hidden="true" aria-label="" class="w-5 h-5" height="24" width="24" fill="none"
  viewBox="0 0 24 24" xmlns="http://www.w3.org/2000/svg">
  <path
    d="M0 2.31724C0 1.70109 0 1.39302 0.0810099 1.1437C0.244736 0.639799 0.639799 0.244736 1.1437 0.0810099C1.39302 0 1.70109 0 2.31724 0H21.6828C22.2989 0 22.607 0 22.8563 0.0810099C23.3602 0.244736 23.7553 0.639799 23.919 1.1437C24 1.39302 24 1.70109 24 2.31724V21.6828C24 22.2989 24 22.607 23.919 22.8563C23.7553 23.3602 23.3602 23.7553 22.8563 23.919C22.607 24 22.2989 24 21.6828 24H2.31724C1.70109 24 1.39302 24 1.1437 23.919C0.639799 23.7553 0.244736 23.3602 0.0810099 22.8563C0 22.607 0 22.2989 0 21.6828V2.31724Z"
    fill="#8278FA"></path>
  <path
    d="M19.4487 12.8275C18.9935 12.8068 14.1108 12.8068 13.6556 12.8275C13.2004 12.8482 12.8487 13.1999 12.828 13.6551C12.8073 14.1103 12.8073 18.993 12.828 19.4482C12.8487 19.9034 13.2004 20.2551 13.6556 20.2758C14.1108 20.2965 18.9935 20.2965 19.4487 20.2758C19.9039 20.2551 20.2556 19.9034 20.2763 19.4482C20.297 18.993 20.297 14.1103 20.2763 13.6551C20.2556 13.1999 19.9039 12.8482 19.4487 12.8275Z"
    fill="#F9F9FF"></path>
  <path
    d="M3.72461 13.2256C3.72458 12.9196 4.10081 12.7284 4.40182 12.8814L10.9471 16.207C11.2481 16.36 11.2482 16.7424 10.9472 16.8954L4.40244 20.2219C4.10147 20.3749 3.72521 20.1837 3.72518 19.8778L3.72461 13.2256Z"
    fill="#F9F9FF"></path>
  <path
    d="M7.44875 11.1724C9.50555 11.1724 11.1729 9.50506 11.1729 7.44826C11.1729 5.39146 9.50555 3.72412 7.44875 3.72412C5.39195 3.72412 3.72461 5.39146 3.72461 7.44826C3.72461 9.50506 5.39195 11.1724 7.44875 11.1724Z"
    fill="#F9F9FF"></path>
  <path
    d="M13.2418 3.72414C13.4694 3.70345 19.6349 3.70345 19.8625 3.72414C20.0901 3.74483 20.2556 3.91034 20.2763 4.13793C20.297 4.36551 20.297 4.94483 20.2763 5.17241C20.2556 5.4 20.0901 5.56551 19.8625 5.5862C19.6349 5.60689 17.5039 5.60276 17.5039 5.60276C17.5039 5.60276 17.5039 10.5517 17.4832 10.7586C17.4625 10.9655 17.297 11.1517 17.0694 11.1724C16.8418 11.1931 16.2625 11.1931 16.0349 11.1724C15.8073 11.1517 15.6418 10.9862 15.6211 10.7586C15.6004 10.5517 15.6004 5.60276 15.6004 5.60276C15.6004 5.60276 13.4901 5.60689 13.2418 5.5862C12.9935 5.56551 12.8487 5.37931 12.828 5.17241C12.8073 4.96551 12.8073 4.36551 12.828 4.13793C12.8487 3.91034 13.0142 3.74483 13.2418 3.72414Z"
    fill="#F9F9FF"></path>
</svg>